<mxfile host="Electron" agent="Mozilla/5.0 (Windows NT 10.0; Win64; x64) AppleWebKit/537.36 (KHTML, like Gecko) draw.io/24.7.17 Chrome/128.0.6613.36 Electron/32.0.1 Safari/537.36" version="24.7.17" pages="4">
  <diagram name="ApplicationController" id="f79ACb6IuH4xms7hOGYl">
    <mxGraphModel dx="1027" dy="983" grid="1" gridSize="10" guides="1" tooltips="1" connect="1" arrows="1" fold="1" page="1" pageScale="1" pageWidth="827" pageHeight="1169" math="0" shadow="0">
      <root>
        <mxCell id="0" />
        <mxCell id="1" parent="0" />
        <mxCell id="qA3wEHPIDPo2xsqhOu_S-3" style="edgeStyle=orthogonalEdgeStyle;rounded=0;orthogonalLoop=1;jettySize=auto;html=1;endArrow=block;endFill=0;" edge="1" parent="1" source="qA3wEHPIDPo2xsqhOu_S-1" target="qA3wEHPIDPo2xsqhOu_S-2">
          <mxGeometry relative="1" as="geometry">
            <Array as="points">
              <mxPoint x="200" y="170" />
              <mxPoint x="200" y="170" />
            </Array>
          </mxGeometry>
        </mxCell>
        <mxCell id="qA3wEHPIDPo2xsqhOu_S-1" value="ApplicationController&lt;div&gt;&amp;lt;Object&amp;gt;&lt;/div&gt;" style="html=1;whiteSpace=wrap;" vertex="1" parent="1">
          <mxGeometry x="120" y="200" width="160" height="40" as="geometry" />
        </mxCell>
        <mxCell id="qA3wEHPIDPo2xsqhOu_S-7" style="edgeStyle=orthogonalEdgeStyle;rounded=0;orthogonalLoop=1;jettySize=auto;html=1;" edge="1" parent="1" source="qA3wEHPIDPo2xsqhOu_S-2" target="qA3wEHPIDPo2xsqhOu_S-4">
          <mxGeometry relative="1" as="geometry" />
        </mxCell>
        <mxCell id="qA3wEHPIDPo2xsqhOu_S-8" style="edgeStyle=orthogonalEdgeStyle;rounded=0;orthogonalLoop=1;jettySize=auto;html=1;" edge="1" parent="1" source="qA3wEHPIDPo2xsqhOu_S-2" target="qA3wEHPIDPo2xsqhOu_S-5">
          <mxGeometry relative="1" as="geometry" />
        </mxCell>
        <mxCell id="qA3wEHPIDPo2xsqhOu_S-9" style="edgeStyle=orthogonalEdgeStyle;rounded=0;orthogonalLoop=1;jettySize=auto;html=1;" edge="1" parent="1" source="qA3wEHPIDPo2xsqhOu_S-2" target="qA3wEHPIDPo2xsqhOu_S-6">
          <mxGeometry relative="1" as="geometry" />
        </mxCell>
        <mxCell id="qA3wEHPIDPo2xsqhOu_S-33" style="edgeStyle=orthogonalEdgeStyle;rounded=0;orthogonalLoop=1;jettySize=auto;html=1;" edge="1" parent="1" source="qA3wEHPIDPo2xsqhOu_S-2" target="qA3wEHPIDPo2xsqhOu_S-31">
          <mxGeometry relative="1" as="geometry" />
        </mxCell>
        <mxCell id="qA3wEHPIDPo2xsqhOu_S-2" value="IApplication&lt;div&gt;&amp;lt;Interface&amp;gt;&lt;/div&gt;" style="html=1;whiteSpace=wrap;" vertex="1" parent="1">
          <mxGeometry x="120" y="80" width="160" height="40" as="geometry" />
        </mxCell>
        <mxCell id="qA3wEHPIDPo2xsqhOu_S-4" value="ISceneController&lt;div&gt;&amp;lt;Interface&amp;gt;&lt;br&gt;&lt;/div&gt;" style="html=1;whiteSpace=wrap;" vertex="1" parent="1">
          <mxGeometry x="320" y="200" width="160" height="40" as="geometry" />
        </mxCell>
        <mxCell id="qA3wEHPIDPo2xsqhOu_S-5" value="ISystemController&lt;div&gt;&amp;lt;Interface&amp;gt;&lt;br&gt;&lt;/div&gt;" style="html=1;whiteSpace=wrap;" vertex="1" parent="1">
          <mxGeometry x="480" y="200" width="160" height="40" as="geometry" />
        </mxCell>
        <mxCell id="qA3wEHPIDPo2xsqhOu_S-6" value="IResourcesController&lt;div&gt;&amp;lt;Interface&amp;gt;&lt;br&gt;&lt;/div&gt;" style="html=1;whiteSpace=wrap;" vertex="1" parent="1">
          <mxGeometry x="640" y="200" width="160" height="40" as="geometry" />
        </mxCell>
        <mxCell id="qA3wEHPIDPo2xsqhOu_S-15" style="edgeStyle=orthogonalEdgeStyle;rounded=0;orthogonalLoop=1;jettySize=auto;html=1;endArrow=block;endFill=0;" edge="1" parent="1" source="qA3wEHPIDPo2xsqhOu_S-11" target="qA3wEHPIDPo2xsqhOu_S-5">
          <mxGeometry relative="1" as="geometry" />
        </mxCell>
        <mxCell id="qA3wEHPIDPo2xsqhOu_S-22" value="&#xa;&lt;span style=&quot;color: rgb(0, 0, 0); font-family: Helvetica; font-size: 11px; font-style: normal; font-variant-ligatures: normal; font-variant-caps: normal; font-weight: 400; letter-spacing: normal; orphans: 2; text-align: center; text-indent: 0px; text-transform: none; widows: 2; word-spacing: 0px; -webkit-text-stroke-width: 0px; white-space: nowrap; background-color: rgb(255, 255, 255); text-decoration-thickness: initial; text-decoration-style: initial; text-decoration-color: initial; display: inline !important; float: none;&quot;&gt;1&lt;/span&gt;&lt;div style=&quot;forced-color-adjust: none; color: rgb(0, 0, 0); font-family: Helvetica; font-size: 11px; font-style: normal; font-variant-ligatures: normal; font-variant-caps: normal; font-weight: 400; letter-spacing: normal; orphans: 2; text-align: center; text-indent: 0px; text-transform: none; widows: 2; word-spacing: 0px; -webkit-text-stroke-width: 0px; white-space: nowrap; text-decoration-thickness: initial; text-decoration-style: initial; text-decoration-color: initial;&quot;&gt;- -&lt;/div&gt;&lt;div style=&quot;forced-color-adjust: none; color: rgb(0, 0, 0); font-family: Helvetica; font-size: 11px; font-style: normal; font-variant-ligatures: normal; font-variant-caps: normal; font-weight: 400; letter-spacing: normal; orphans: 2; text-align: center; text-indent: 0px; text-transform: none; widows: 2; word-spacing: 0px; -webkit-text-stroke-width: 0px; white-space: nowrap; text-decoration-thickness: initial; text-decoration-style: initial; text-decoration-color: initial;&quot;&gt;n&lt;/div&gt;&#xa;&#xa;" style="edgeStyle=orthogonalEdgeStyle;rounded=0;orthogonalLoop=1;jettySize=auto;html=1;dashed=1;" edge="1" parent="1" source="qA3wEHPIDPo2xsqhOu_S-11" target="qA3wEHPIDPo2xsqhOu_S-19">
          <mxGeometry y="-20" relative="1" as="geometry">
            <mxPoint as="offset" />
          </mxGeometry>
        </mxCell>
        <mxCell id="qA3wEHPIDPo2xsqhOu_S-11" value="SystemController&lt;div&gt;&amp;lt;Component&amp;gt;&lt;br&gt;&lt;/div&gt;" style="html=1;whiteSpace=wrap;" vertex="1" parent="1">
          <mxGeometry x="480" y="320" width="160" height="40" as="geometry" />
        </mxCell>
        <mxCell id="qA3wEHPIDPo2xsqhOu_S-14" style="edgeStyle=orthogonalEdgeStyle;rounded=0;orthogonalLoop=1;jettySize=auto;html=1;endArrow=block;endFill=0;" edge="1" parent="1" source="qA3wEHPIDPo2xsqhOu_S-12" target="qA3wEHPIDPo2xsqhOu_S-4">
          <mxGeometry relative="1" as="geometry" />
        </mxCell>
        <mxCell id="qA3wEHPIDPo2xsqhOu_S-30" value="&#xa;&lt;span style=&quot;color: rgb(0, 0, 0); font-family: Helvetica; font-size: 11px; font-style: normal; font-variant-ligatures: normal; font-variant-caps: normal; font-weight: 400; letter-spacing: normal; orphans: 2; text-align: center; text-indent: 0px; text-transform: none; widows: 2; word-spacing: 0px; -webkit-text-stroke-width: 0px; white-space: nowrap; background-color: rgb(255, 255, 255); text-decoration-thickness: initial; text-decoration-style: initial; text-decoration-color: initial; display: inline !important; float: none;&quot;&gt;1&lt;/span&gt;&lt;div style=&quot;forced-color-adjust: none; color: rgb(0, 0, 0); font-family: Helvetica; font-size: 11px; font-style: normal; font-variant-ligatures: normal; font-variant-caps: normal; font-weight: 400; letter-spacing: normal; orphans: 2; text-align: center; text-indent: 0px; text-transform: none; widows: 2; word-spacing: 0px; -webkit-text-stroke-width: 0px; white-space: nowrap; text-decoration-thickness: initial; text-decoration-style: initial; text-decoration-color: initial;&quot;&gt;- -&lt;/div&gt;&lt;div style=&quot;forced-color-adjust: none; color: rgb(0, 0, 0); font-family: Helvetica; font-size: 11px; font-style: normal; font-variant-ligatures: normal; font-variant-caps: normal; font-weight: 400; letter-spacing: normal; orphans: 2; text-align: center; text-indent: 0px; text-transform: none; widows: 2; word-spacing: 0px; -webkit-text-stroke-width: 0px; white-space: nowrap; text-decoration-thickness: initial; text-decoration-style: initial; text-decoration-color: initial;&quot;&gt;n&lt;/div&gt;&#xa;&#xa;" style="edgeStyle=orthogonalEdgeStyle;rounded=0;orthogonalLoop=1;jettySize=auto;html=1;startArrow=none;startFill=0;startSize=12;" edge="1" parent="1" source="qA3wEHPIDPo2xsqhOu_S-12" target="qA3wEHPIDPo2xsqhOu_S-18">
          <mxGeometry y="-20" relative="1" as="geometry">
            <mxPoint as="offset" />
          </mxGeometry>
        </mxCell>
        <mxCell id="qA3wEHPIDPo2xsqhOu_S-12" value="SceneController&lt;div&gt;&amp;lt;Component&amp;gt;&lt;/div&gt;" style="html=1;whiteSpace=wrap;" vertex="1" parent="1">
          <mxGeometry x="320" y="320" width="160" height="40" as="geometry" />
        </mxCell>
        <mxCell id="qA3wEHPIDPo2xsqhOu_S-16" style="edgeStyle=orthogonalEdgeStyle;rounded=0;orthogonalLoop=1;jettySize=auto;html=1;endArrow=block;endFill=0;" edge="1" parent="1" source="qA3wEHPIDPo2xsqhOu_S-13" target="qA3wEHPIDPo2xsqhOu_S-6">
          <mxGeometry relative="1" as="geometry" />
        </mxCell>
        <mxCell id="qA3wEHPIDPo2xsqhOu_S-24" style="edgeStyle=orthogonalEdgeStyle;rounded=0;orthogonalLoop=1;jettySize=auto;html=1;dashed=1;startArrow=diamondThin;startFill=0;jumpSize=12;startSize=12;" edge="1" parent="1" source="qA3wEHPIDPo2xsqhOu_S-13" target="qA3wEHPIDPo2xsqhOu_S-21">
          <mxGeometry relative="1" as="geometry" />
        </mxCell>
        <mxCell id="qA3wEHPIDPo2xsqhOu_S-13" value="ResourcesController&lt;div&gt;&amp;lt;Component&amp;gt;&lt;br&gt;&lt;/div&gt;" style="html=1;whiteSpace=wrap;" vertex="1" parent="1">
          <mxGeometry x="640" y="320" width="160" height="40" as="geometry" />
        </mxCell>
        <mxCell id="qA3wEHPIDPo2xsqhOu_S-26" value="" style="edgeStyle=orthogonalEdgeStyle;rounded=0;orthogonalLoop=1;jettySize=auto;html=1;startArrow=classic;startFill=1;" edge="1" parent="1" source="qA3wEHPIDPo2xsqhOu_S-18" target="qA3wEHPIDPo2xsqhOu_S-19">
          <mxGeometry relative="1" as="geometry">
            <Array as="points">
              <mxPoint x="400" y="520" />
              <mxPoint x="560" y="520" />
            </Array>
          </mxGeometry>
        </mxCell>
        <mxCell id="qA3wEHPIDPo2xsqhOu_S-29" value="1 : n" style="edgeLabel;html=1;align=center;verticalAlign=middle;resizable=0;points=[];" vertex="1" connectable="0" parent="qA3wEHPIDPo2xsqhOu_S-26">
          <mxGeometry x="-0.0117" y="-1" relative="1" as="geometry">
            <mxPoint x="1" y="9" as="offset" />
          </mxGeometry>
        </mxCell>
        <mxCell id="qA3wEHPIDPo2xsqhOu_S-18" value="SceneState&lt;div&gt;&amp;lt;Object&amp;gt;&lt;br&gt;&lt;/div&gt;" style="html=1;whiteSpace=wrap;" vertex="1" parent="1">
          <mxGeometry x="320" y="440" width="160" height="40" as="geometry" />
        </mxCell>
        <mxCell id="taMbMxGz_PkSbNufisqp-2" style="edgeStyle=orthogonalEdgeStyle;rounded=0;orthogonalLoop=1;jettySize=auto;html=1;" edge="1" parent="1" source="qA3wEHPIDPo2xsqhOu_S-19" target="qA3wEHPIDPo2xsqhOu_S-2">
          <mxGeometry relative="1" as="geometry">
            <Array as="points">
              <mxPoint x="600" y="560" />
              <mxPoint x="80" y="560" />
              <mxPoint x="80" y="100" />
            </Array>
          </mxGeometry>
        </mxCell>
        <mxCell id="qA3wEHPIDPo2xsqhOu_S-19" value="SystemState&lt;div&gt;&amp;lt;Object&amp;gt;&lt;br&gt;&lt;/div&gt;" style="html=1;whiteSpace=wrap;" vertex="1" parent="1">
          <mxGeometry x="480" y="440" width="160" height="40" as="geometry" />
        </mxCell>
        <mxCell id="taMbMxGz_PkSbNufisqp-4" style="edgeStyle=orthogonalEdgeStyle;rounded=0;orthogonalLoop=1;jettySize=auto;html=1;" edge="1" parent="1" source="qA3wEHPIDPo2xsqhOu_S-21" target="qA3wEHPIDPo2xsqhOu_S-6">
          <mxGeometry relative="1" as="geometry">
            <Array as="points">
              <mxPoint x="840" y="460" />
              <mxPoint x="840" y="220" />
            </Array>
          </mxGeometry>
        </mxCell>
        <mxCell id="qA3wEHPIDPo2xsqhOu_S-21" value="ResourcesState" style="html=1;whiteSpace=wrap;" vertex="1" parent="1">
          <mxGeometry x="640" y="440" width="160" height="40" as="geometry" />
        </mxCell>
        <mxCell id="qA3wEHPIDPo2xsqhOu_S-31" value="MultiPlayController&lt;div&gt;&amp;lt;Interface&amp;gt;&lt;br&gt;&lt;/div&gt;" style="html=1;whiteSpace=wrap;fillColor=#f5f5f5;fontColor=#333333;strokeColor=#666666;" vertex="1" parent="1">
          <mxGeometry x="880" y="200" width="160" height="40" as="geometry" />
        </mxCell>
        <mxCell id="qA3wEHPIDPo2xsqhOu_S-36" style="edgeStyle=orthogonalEdgeStyle;rounded=0;orthogonalLoop=1;jettySize=auto;html=1;fillColor=#f5f5f5;strokeColor=#666666;" edge="1" parent="1" source="qA3wEHPIDPo2xsqhOu_S-32" target="qA3wEHPIDPo2xsqhOu_S-35">
          <mxGeometry relative="1" as="geometry" />
        </mxCell>
        <mxCell id="qA3wEHPIDPo2xsqhOu_S-32" value="MultiPlay&lt;span style=&quot;background-color: initial;&quot;&gt;Controller&lt;/span&gt;&lt;div&gt;&lt;div&gt;&amp;lt;Component&amp;gt;&lt;br&gt;&lt;/div&gt;&lt;/div&gt;" style="html=1;whiteSpace=wrap;fillColor=#f5f5f5;fontColor=#333333;strokeColor=#666666;" vertex="1" parent="1">
          <mxGeometry x="880" y="320" width="160" height="40" as="geometry" />
        </mxCell>
        <mxCell id="qA3wEHPIDPo2xsqhOu_S-34" style="edgeStyle=orthogonalEdgeStyle;rounded=0;orthogonalLoop=1;jettySize=auto;html=1;endArrow=block;endFill=0;fillColor=#f5f5f5;strokeColor=#666666;" edge="1" parent="1" source="qA3wEHPIDPo2xsqhOu_S-32" target="qA3wEHPIDPo2xsqhOu_S-31">
          <mxGeometry relative="1" as="geometry">
            <mxPoint x="810" y="330" as="sourcePoint" />
            <mxPoint x="810" y="250" as="targetPoint" />
          </mxGeometry>
        </mxCell>
        <mxCell id="taMbMxGz_PkSbNufisqp-5" style="edgeStyle=orthogonalEdgeStyle;rounded=0;orthogonalLoop=1;jettySize=auto;html=1;" edge="1" parent="1" source="qA3wEHPIDPo2xsqhOu_S-35" target="qA3wEHPIDPo2xsqhOu_S-31">
          <mxGeometry relative="1" as="geometry">
            <Array as="points">
              <mxPoint x="1080" y="460" />
              <mxPoint x="1080" y="220" />
            </Array>
          </mxGeometry>
        </mxCell>
        <mxCell id="qA3wEHPIDPo2xsqhOu_S-35" value="MultiPlayerState" style="html=1;whiteSpace=wrap;fillColor=#f5f5f5;fontColor=#333333;strokeColor=#666666;" vertex="1" parent="1">
          <mxGeometry x="880" y="440" width="160" height="40" as="geometry" />
        </mxCell>
      </root>
    </mxGraphModel>
  </diagram>
  <diagram id="kpMLhnbQY2mTj9FmZSgv" name="Scene/System Controller">
    <mxGraphModel dx="1232" dy="1187" grid="1" gridSize="10" guides="1" tooltips="1" connect="1" arrows="1" fold="1" page="1" pageScale="1" pageWidth="827" pageHeight="1169" math="0" shadow="0">
      <root>
        <mxCell id="0" />
        <mxCell id="1" parent="0" />
        <mxCell id="94Ch0RVz7cuUyCDlgtEk-1" value="ISceneController&lt;div&gt;&amp;lt;Interface&amp;gt;&lt;br&gt;&lt;/div&gt;" style="html=1;whiteSpace=wrap;" parent="1" vertex="1">
          <mxGeometry x="120" y="40" width="160" height="40" as="geometry" />
        </mxCell>
        <mxCell id="94Ch0RVz7cuUyCDlgtEk-2" value="ISystemController&lt;div&gt;&amp;lt;Interface&amp;gt;&lt;br&gt;&lt;/div&gt;" style="html=1;whiteSpace=wrap;" parent="1" vertex="1">
          <mxGeometry x="480" y="40" width="160" height="40" as="geometry" />
        </mxCell>
        <mxCell id="94Ch0RVz7cuUyCDlgtEk-3" style="edgeStyle=orthogonalEdgeStyle;rounded=0;orthogonalLoop=1;jettySize=auto;html=1;endArrow=block;endFill=0;" parent="1" source="94Ch0RVz7cuUyCDlgtEk-5" target="94Ch0RVz7cuUyCDlgtEk-2" edge="1">
          <mxGeometry relative="1" as="geometry" />
        </mxCell>
        <mxCell id="94Ch0RVz7cuUyCDlgtEk-4" value="Load 된 씬에 있는 System 제어" style="edgeStyle=orthogonalEdgeStyle;rounded=0;orthogonalLoop=1;jettySize=auto;html=1;" parent="1" source="94Ch0RVz7cuUyCDlgtEk-5" target="94Ch0RVz7cuUyCDlgtEk-12" edge="1">
          <mxGeometry relative="1" as="geometry">
            <mxPoint as="offset" />
          </mxGeometry>
        </mxCell>
        <mxCell id="94Ch0RVz7cuUyCDlgtEk-5" value="SystemController&lt;div&gt;&amp;lt;Component&amp;gt;&lt;br&gt;&lt;/div&gt;" style="html=1;whiteSpace=wrap;" parent="1" vertex="1">
          <mxGeometry x="480" y="160" width="160" height="40" as="geometry" />
        </mxCell>
        <mxCell id="94Ch0RVz7cuUyCDlgtEk-6" style="edgeStyle=orthogonalEdgeStyle;rounded=0;orthogonalLoop=1;jettySize=auto;html=1;endArrow=block;endFill=0;" parent="1" source="94Ch0RVz7cuUyCDlgtEk-8" target="94Ch0RVz7cuUyCDlgtEk-1" edge="1">
          <mxGeometry relative="1" as="geometry" />
        </mxCell>
        <mxCell id="94Ch0RVz7cuUyCDlgtEk-7" value="주어진 상태에 해당하는 모든 씬 제어" style="edgeStyle=orthogonalEdgeStyle;rounded=0;orthogonalLoop=1;jettySize=auto;html=1;" parent="1" source="94Ch0RVz7cuUyCDlgtEk-8" target="94Ch0RVz7cuUyCDlgtEk-11" edge="1">
          <mxGeometry relative="1" as="geometry">
            <mxPoint as="offset" />
          </mxGeometry>
        </mxCell>
        <mxCell id="94Ch0RVz7cuUyCDlgtEk-8" value="SceneController&lt;div&gt;&amp;lt;Component&amp;gt;&lt;/div&gt;" style="html=1;whiteSpace=wrap;" parent="1" vertex="1">
          <mxGeometry x="120" y="160" width="160" height="40" as="geometry" />
        </mxCell>
        <mxCell id="94Ch0RVz7cuUyCDlgtEk-9" value="서로에 대한 상태 링크를 연결" style="edgeStyle=orthogonalEdgeStyle;rounded=0;orthogonalLoop=1;jettySize=auto;html=1;startArrow=classic;startFill=1;" parent="1" source="94Ch0RVz7cuUyCDlgtEk-11" target="94Ch0RVz7cuUyCDlgtEk-12" edge="1">
          <mxGeometry relative="1" as="geometry">
            <Array as="points">
              <mxPoint x="490" y="300" />
              <mxPoint x="490" y="300" />
            </Array>
          </mxGeometry>
        </mxCell>
        <mxCell id="94Ch0RVz7cuUyCDlgtEk-11" value="SceneState&lt;div&gt;&amp;lt;Object&amp;gt;&lt;br&gt;&lt;/div&gt;" style="html=1;whiteSpace=wrap;" parent="1" vertex="1">
          <mxGeometry x="120" y="280" width="160" height="40" as="geometry" />
        </mxCell>
        <mxCell id="3j6B8KGQg7cURVUM4sYX-1" style="edgeStyle=orthogonalEdgeStyle;rounded=0;orthogonalLoop=1;jettySize=auto;html=1;" parent="1" source="94Ch0RVz7cuUyCDlgtEk-12" target="9D-d5vyAvnZCnI7glAVj-71" edge="1">
          <mxGeometry relative="1" as="geometry" />
        </mxCell>
        <mxCell id="94Ch0RVz7cuUyCDlgtEk-12" value="SystemState&lt;div&gt;&amp;lt;Object&amp;gt;&lt;br&gt;&lt;/div&gt;" style="html=1;whiteSpace=wrap;" parent="1" vertex="1">
          <mxGeometry x="480" y="280" width="160" height="40" as="geometry" />
        </mxCell>
        <mxCell id="9D-d5vyAvnZCnI7glAVj-20" value="" style="shape=umlLifeline;perimeter=lifelinePerimeter;whiteSpace=wrap;html=1;container=1;dropTarget=0;collapsible=0;recursiveResize=0;outlineConnect=0;portConstraint=eastwest;newEdgeStyle={&quot;curved&quot;:0,&quot;rounded&quot;:0};size=0;" parent="1" vertex="1">
          <mxGeometry x="150" y="320" width="100" height="300" as="geometry" />
        </mxCell>
        <mxCell id="9D-d5vyAvnZCnI7glAVj-29" value="" style="html=1;points=[[0,0,0,0,5],[0,1,0,0,-5],[1,0,0,0,5],[1,1,0,0,-5]];perimeter=orthogonalPerimeter;outlineConnect=0;targetShapes=umlLifeline;portConstraint=eastwest;newEdgeStyle={&quot;curved&quot;:0,&quot;rounded&quot;:0};" parent="9D-d5vyAvnZCnI7glAVj-20" vertex="1">
          <mxGeometry x="45" y="60" width="10" height="70" as="geometry" />
        </mxCell>
        <mxCell id="9D-d5vyAvnZCnI7glAVj-30" value="async 씬 로드 (Unity Scene Assert Load)" style="html=1;align=left;spacingLeft=2;endArrow=block;rounded=0;edgeStyle=orthogonalEdgeStyle;curved=0;rounded=0;" parent="9D-d5vyAvnZCnI7glAVj-20" target="9D-d5vyAvnZCnI7glAVj-29" edge="1">
          <mxGeometry relative="1" as="geometry">
            <mxPoint x="50" y="40" as="sourcePoint" />
            <Array as="points">
              <mxPoint x="80" y="70" />
            </Array>
          </mxGeometry>
        </mxCell>
        <mxCell id="9D-d5vyAvnZCnI7glAVj-43" value="" style="html=1;points=[[0,0,0,0,5],[0,1,0,0,-5],[1,0,0,0,5],[1,1,0,0,-5]];perimeter=orthogonalPerimeter;outlineConnect=0;targetShapes=umlLifeline;portConstraint=eastwest;newEdgeStyle={&quot;curved&quot;:0,&quot;rounded&quot;:0};" parent="9D-d5vyAvnZCnI7glAVj-20" vertex="1">
          <mxGeometry x="45" y="190" width="10" height="70" as="geometry" />
        </mxCell>
        <mxCell id="9D-d5vyAvnZCnI7glAVj-28" value="" style="shape=umlLifeline;perimeter=lifelinePerimeter;whiteSpace=wrap;html=1;container=1;dropTarget=0;collapsible=0;recursiveResize=0;outlineConnect=0;portConstraint=eastwest;newEdgeStyle={&quot;curved&quot;:0,&quot;rounded&quot;:0};size=0;" parent="1" vertex="1">
          <mxGeometry x="510" y="320" width="100" height="300" as="geometry" />
        </mxCell>
        <mxCell id="9D-d5vyAvnZCnI7glAVj-40" value="" style="html=1;points=[[0,0,0,0,5],[0,1,0,0,-5],[1,0,0,0,5],[1,1,0,0,-5]];perimeter=orthogonalPerimeter;outlineConnect=0;targetShapes=umlLifeline;portConstraint=eastwest;newEdgeStyle={&quot;curved&quot;:0,&quot;rounded&quot;:0};" parent="9D-d5vyAvnZCnI7glAVj-28" vertex="1">
          <mxGeometry x="45" y="110" width="10" height="100" as="geometry" />
        </mxCell>
        <mxCell id="9D-d5vyAvnZCnI7glAVj-47" value="" style="html=1;points=[[0,0,0,0,5],[0,1,0,0,-5],[1,0,0,0,5],[1,1,0,0,-5]];perimeter=orthogonalPerimeter;outlineConnect=0;targetShapes=umlLifeline;portConstraint=eastwest;newEdgeStyle={&quot;curved&quot;:0,&quot;rounded&quot;:0};" parent="9D-d5vyAvnZCnI7glAVj-28" vertex="1">
          <mxGeometry x="50" y="140" width="10" height="40" as="geometry" />
        </mxCell>
        <mxCell id="9D-d5vyAvnZCnI7glAVj-48" value="&lt;div&gt;async System 세팅 진행&lt;/div&gt;" style="html=1;align=left;spacingLeft=2;endArrow=block;rounded=0;edgeStyle=orthogonalEdgeStyle;curved=0;rounded=0;" parent="9D-d5vyAvnZCnI7glAVj-28" target="9D-d5vyAvnZCnI7glAVj-47" edge="1">
          <mxGeometry x="-0.0588" relative="1" as="geometry">
            <mxPoint x="55" y="120" as="sourcePoint" />
            <Array as="points">
              <mxPoint x="85" y="150" />
            </Array>
            <mxPoint as="offset" />
          </mxGeometry>
        </mxCell>
        <mxCell id="9D-d5vyAvnZCnI7glAVj-41" value="await System 시작 대기" style="html=1;verticalAlign=bottom;endArrow=block;curved=0;rounded=0;entryX=0;entryY=0;entryDx=0;entryDy=5;" parent="1" source="9D-d5vyAvnZCnI7glAVj-29" target="9D-d5vyAvnZCnI7glAVj-40" edge="1">
          <mxGeometry relative="1" as="geometry">
            <mxPoint x="485" y="435" as="sourcePoint" />
          </mxGeometry>
        </mxCell>
        <mxCell id="9D-d5vyAvnZCnI7glAVj-42" value="System 준비 완료" style="html=1;verticalAlign=bottom;endArrow=open;dashed=1;endSize=8;curved=0;rounded=0;exitX=0;exitY=1;exitDx=0;exitDy=-5;" parent="1" source="9D-d5vyAvnZCnI7glAVj-40" target="9D-d5vyAvnZCnI7glAVj-43" edge="1">
          <mxGeometry relative="1" as="geometry">
            <mxPoint x="485" y="505" as="targetPoint" />
          </mxGeometry>
        </mxCell>
        <mxCell id="9D-d5vyAvnZCnI7glAVj-50" value="씬 로드 완료" style="edgeStyle=orthogonalEdgeStyle;rounded=0;orthogonalLoop=1;jettySize=auto;html=1;curved=0;jumpStyle=gap;jumpSize=12;" parent="1" source="9D-d5vyAvnZCnI7glAVj-43" target="94Ch0RVz7cuUyCDlgtEk-8" edge="1">
          <mxGeometry x="-0.8018" relative="1" as="geometry">
            <Array as="points">
              <mxPoint x="80" y="570" />
              <mxPoint x="80" y="170" />
            </Array>
            <mxPoint as="offset" />
          </mxGeometry>
        </mxCell>
        <mxCell id="9D-d5vyAvnZCnI7glAVj-51" value="씬 로드 시작" style="edgeStyle=orthogonalEdgeStyle;rounded=0;orthogonalLoop=1;jettySize=auto;html=1;" parent="1" source="94Ch0RVz7cuUyCDlgtEk-8" target="9D-d5vyAvnZCnI7glAVj-20" edge="1">
          <mxGeometry x="0.6027" relative="1" as="geometry">
            <Array as="points">
              <mxPoint x="100" y="180" />
              <mxPoint x="100" y="360" />
            </Array>
            <mxPoint as="offset" />
          </mxGeometry>
        </mxCell>
        <mxCell id="9D-d5vyAvnZCnI7glAVj-52" value="서로에 대한 상태 링크를 연결" style="edgeStyle=orthogonalEdgeStyle;rounded=0;orthogonalLoop=1;jettySize=auto;html=1;startArrow=classic;startFill=1;" parent="1" source="9D-d5vyAvnZCnI7glAVj-53" target="9D-d5vyAvnZCnI7glAVj-54" edge="1">
          <mxGeometry relative="1" as="geometry">
            <Array as="points">
              <mxPoint x="490" y="660" />
              <mxPoint x="490" y="660" />
            </Array>
          </mxGeometry>
        </mxCell>
        <mxCell id="9D-d5vyAvnZCnI7glAVj-53" value="SceneState&lt;div&gt;&amp;lt;Object&amp;gt;&lt;br&gt;&lt;/div&gt;" style="html=1;whiteSpace=wrap;" parent="1" vertex="1">
          <mxGeometry x="120" y="640" width="160" height="40" as="geometry" />
        </mxCell>
        <mxCell id="9D-d5vyAvnZCnI7glAVj-54" value="SystemState&lt;div&gt;&amp;lt;Object&amp;gt;&lt;br&gt;&lt;/div&gt;" style="html=1;whiteSpace=wrap;" parent="1" vertex="1">
          <mxGeometry x="480" y="640" width="160" height="40" as="geometry" />
        </mxCell>
        <mxCell id="9D-d5vyAvnZCnI7glAVj-55" value="" style="shape=umlLifeline;perimeter=lifelinePerimeter;whiteSpace=wrap;html=1;container=1;dropTarget=0;collapsible=0;recursiveResize=0;outlineConnect=0;portConstraint=eastwest;newEdgeStyle={&quot;curved&quot;:0,&quot;rounded&quot;:0};size=0;" parent="1" vertex="1">
          <mxGeometry x="150" y="680" width="100" height="320" as="geometry" />
        </mxCell>
        <mxCell id="9D-d5vyAvnZCnI7glAVj-56" value="" style="html=1;points=[[0,0,0,0,5],[0,1,0,0,-5],[1,0,0,0,5],[1,1,0,0,-5]];perimeter=orthogonalPerimeter;outlineConnect=0;targetShapes=umlLifeline;portConstraint=eastwest;newEdgeStyle={&quot;curved&quot;:0,&quot;rounded&quot;:0};" parent="9D-d5vyAvnZCnI7glAVj-55" vertex="1">
          <mxGeometry x="45" y="60" width="10" height="70" as="geometry" />
        </mxCell>
        <mxCell id="9D-d5vyAvnZCnI7glAVj-66" value="" style="html=1;points=[[0,0,0,0,5],[0,1,0,0,-5],[1,0,0,0,5],[1,1,0,0,-5]];perimeter=orthogonalPerimeter;outlineConnect=0;targetShapes=umlLifeline;portConstraint=eastwest;newEdgeStyle={&quot;curved&quot;:0,&quot;rounded&quot;:0};" parent="9D-d5vyAvnZCnI7glAVj-55" vertex="1">
          <mxGeometry x="45" y="250" width="10" height="30" as="geometry" />
        </mxCell>
        <mxCell id="9D-d5vyAvnZCnI7glAVj-65" value="async 씬 언로드 (Unity Scene Assert Load)" style="html=1;align=left;spacingLeft=2;endArrow=block;rounded=0;edgeStyle=orthogonalEdgeStyle;curved=0;rounded=0;" parent="9D-d5vyAvnZCnI7glAVj-55" edge="1">
          <mxGeometry relative="1" as="geometry">
            <mxPoint x="50" y="220" as="sourcePoint" />
            <Array as="points">
              <mxPoint x="80" y="250" />
            </Array>
            <mxPoint x="55" y="250" as="targetPoint" />
          </mxGeometry>
        </mxCell>
        <mxCell id="9D-d5vyAvnZCnI7glAVj-58" value="" style="html=1;points=[[0,0,0,0,5],[0,1,0,0,-5],[1,0,0,0,5],[1,1,0,0,-5]];perimeter=orthogonalPerimeter;outlineConnect=0;targetShapes=umlLifeline;portConstraint=eastwest;newEdgeStyle={&quot;curved&quot;:0,&quot;rounded&quot;:0};" parent="9D-d5vyAvnZCnI7glAVj-55" vertex="1">
          <mxGeometry x="45" y="190" width="10" height="40" as="geometry" />
        </mxCell>
        <mxCell id="9D-d5vyAvnZCnI7glAVj-59" value="" style="shape=umlLifeline;perimeter=lifelinePerimeter;whiteSpace=wrap;html=1;container=1;dropTarget=0;collapsible=0;recursiveResize=0;outlineConnect=0;portConstraint=eastwest;newEdgeStyle={&quot;curved&quot;:0,&quot;rounded&quot;:0};size=0;" parent="1" vertex="1">
          <mxGeometry x="510" y="680" width="100" height="320" as="geometry" />
        </mxCell>
        <mxCell id="9D-d5vyAvnZCnI7glAVj-60" value="" style="html=1;points=[[0,0,0,0,5],[0,1,0,0,-5],[1,0,0,0,5],[1,1,0,0,-5]];perimeter=orthogonalPerimeter;outlineConnect=0;targetShapes=umlLifeline;portConstraint=eastwest;newEdgeStyle={&quot;curved&quot;:0,&quot;rounded&quot;:0};" parent="9D-d5vyAvnZCnI7glAVj-59" vertex="1">
          <mxGeometry x="45" y="110" width="10" height="100" as="geometry" />
        </mxCell>
        <mxCell id="9D-d5vyAvnZCnI7glAVj-61" value="" style="html=1;points=[[0,0,0,0,5],[0,1,0,0,-5],[1,0,0,0,5],[1,1,0,0,-5]];perimeter=orthogonalPerimeter;outlineConnect=0;targetShapes=umlLifeline;portConstraint=eastwest;newEdgeStyle={&quot;curved&quot;:0,&quot;rounded&quot;:0};" parent="9D-d5vyAvnZCnI7glAVj-59" vertex="1">
          <mxGeometry x="50" y="140" width="10" height="40" as="geometry" />
        </mxCell>
        <mxCell id="9D-d5vyAvnZCnI7glAVj-62" value="&lt;div&gt;async System 종료 진행&lt;/div&gt;" style="html=1;align=left;spacingLeft=2;endArrow=block;rounded=0;edgeStyle=orthogonalEdgeStyle;curved=0;rounded=0;" parent="9D-d5vyAvnZCnI7glAVj-59" target="9D-d5vyAvnZCnI7glAVj-61" edge="1">
          <mxGeometry x="-0.0588" relative="1" as="geometry">
            <mxPoint x="55" y="120" as="sourcePoint" />
            <Array as="points">
              <mxPoint x="85" y="150" />
            </Array>
            <mxPoint as="offset" />
          </mxGeometry>
        </mxCell>
        <mxCell id="9D-d5vyAvnZCnI7glAVj-63" value="await System 종료 대기" style="html=1;verticalAlign=bottom;endArrow=block;curved=0;rounded=0;entryX=0;entryY=0;entryDx=0;entryDy=5;" parent="1" source="9D-d5vyAvnZCnI7glAVj-56" target="9D-d5vyAvnZCnI7glAVj-60" edge="1">
          <mxGeometry relative="1" as="geometry">
            <mxPoint x="485" y="795" as="sourcePoint" />
          </mxGeometry>
        </mxCell>
        <mxCell id="9D-d5vyAvnZCnI7glAVj-64" value="System 종료 완료" style="html=1;verticalAlign=bottom;endArrow=open;dashed=1;endSize=8;curved=0;rounded=0;exitX=0;exitY=1;exitDx=0;exitDy=-5;" parent="1" source="9D-d5vyAvnZCnI7glAVj-60" target="9D-d5vyAvnZCnI7glAVj-58" edge="1">
          <mxGeometry relative="1" as="geometry">
            <mxPoint x="485" y="865" as="targetPoint" />
          </mxGeometry>
        </mxCell>
        <mxCell id="9D-d5vyAvnZCnI7glAVj-68" value="씬 언로드 시작" style="edgeStyle=orthogonalEdgeStyle;rounded=0;orthogonalLoop=1;jettySize=auto;html=1;" parent="1" edge="1">
          <mxGeometry x="0.4" relative="1" as="geometry">
            <mxPoint x="100" y="640" as="sourcePoint" />
            <mxPoint x="200" y="740" as="targetPoint" />
            <Array as="points">
              <mxPoint x="100" y="740" />
            </Array>
            <mxPoint as="offset" />
          </mxGeometry>
        </mxCell>
        <mxCell id="9D-d5vyAvnZCnI7glAVj-70" value="씬 언로드 완료" style="edgeStyle=orthogonalEdgeStyle;rounded=0;orthogonalLoop=1;jettySize=auto;html=1;curved=0;jumpStyle=gap;jumpSize=12;" parent="1" edge="1">
          <mxGeometry x="-0.7471" relative="1" as="geometry">
            <mxPoint x="195" y="960" as="sourcePoint" />
            <mxPoint x="80" y="640" as="targetPoint" />
            <Array as="points">
              <mxPoint x="80" y="960" />
            </Array>
            <mxPoint as="offset" />
          </mxGeometry>
        </mxCell>
        <mxCell id="3j6B8KGQg7cURVUM4sYX-2" style="edgeStyle=orthogonalEdgeStyle;rounded=0;orthogonalLoop=1;jettySize=auto;html=1;" parent="1" source="9D-d5vyAvnZCnI7glAVj-71" target="94Ch0RVz7cuUyCDlgtEk-2" edge="1">
          <mxGeometry relative="1" as="geometry">
            <Array as="points">
              <mxPoint x="560" y="20" />
            </Array>
          </mxGeometry>
        </mxCell>
        <mxCell id="3j6B8KGQg7cURVUM4sYX-3" style="edgeStyle=orthogonalEdgeStyle;rounded=0;orthogonalLoop=1;jettySize=auto;html=1;" parent="1" source="9D-d5vyAvnZCnI7glAVj-71" target="94Ch0RVz7cuUyCDlgtEk-1" edge="1">
          <mxGeometry relative="1" as="geometry">
            <Array as="points">
              <mxPoint x="200" y="20" />
            </Array>
          </mxGeometry>
        </mxCell>
        <mxCell id="9D-d5vyAvnZCnI7glAVj-71" value="&lt;div&gt;IApplication&lt;/div&gt;&lt;div&gt;&amp;lt;Interface&amp;gt;&lt;br&gt;&lt;/div&gt;" style="html=1;whiteSpace=wrap;" parent="1" vertex="1">
          <mxGeometry x="680" width="160" height="40" as="geometry" />
        </mxCell>
        <mxCell id="3GafGSYJEiO0BARS-ts5-1" value="SceneController&lt;div&gt;&amp;lt;Component&amp;gt;&lt;/div&gt;" style="html=1;whiteSpace=wrap;" vertex="1" parent="1">
          <mxGeometry y="600" width="110" height="40" as="geometry" />
        </mxCell>
      </root>
    </mxGraphModel>
  </diagram>
  <diagram id="EP1KhWpy-4JUbohE5UlQ" name="SceneState">
    <mxGraphModel dx="1232" dy="1180" grid="1" gridSize="10" guides="1" tooltips="1" connect="1" arrows="1" fold="1" page="1" pageScale="1" pageWidth="827" pageHeight="1169" math="0" shadow="0">
      <root>
        <mxCell id="0" />
        <mxCell id="1" parent="0" />
        <mxCell id="3H3sNzVdtPN1H-u9H_TP-3" value="1 : n" style="edgeStyle=orthogonalEdgeStyle;rounded=0;orthogonalLoop=1;jettySize=auto;html=1;" edge="1" parent="1" source="3H3sNzVdtPN1H-u9H_TP-1" target="3H3sNzVdtPN1H-u9H_TP-2">
          <mxGeometry y="10" relative="1" as="geometry">
            <mxPoint as="offset" />
          </mxGeometry>
        </mxCell>
        <mxCell id="3H3sNzVdtPN1H-u9H_TP-9" style="edgeStyle=orthogonalEdgeStyle;rounded=0;orthogonalLoop=1;jettySize=auto;html=1;" edge="1" parent="1" source="3H3sNzVdtPN1H-u9H_TP-1" target="3H3sNzVdtPN1H-u9H_TP-8">
          <mxGeometry relative="1" as="geometry" />
        </mxCell>
        <mxCell id="3H3sNzVdtPN1H-u9H_TP-1" value="SceneState&lt;div&gt;&amp;lt;Object&amp;gt;&lt;/div&gt;" style="whiteSpace=wrap;html=1;" vertex="1" parent="1">
          <mxGeometry x="200" y="320" width="160" height="40" as="geometry" />
        </mxCell>
        <mxCell id="3H3sNzVdtPN1H-u9H_TP-10" style="edgeStyle=orthogonalEdgeStyle;rounded=0;orthogonalLoop=1;jettySize=auto;html=1;" edge="1" parent="1" source="3H3sNzVdtPN1H-u9H_TP-2" target="3H3sNzVdtPN1H-u9H_TP-8">
          <mxGeometry relative="1" as="geometry" />
        </mxCell>
        <mxCell id="3H3sNzVdtPN1H-u9H_TP-2" value="SubSceneState&lt;div&gt;&amp;lt;Component&amp;gt;&lt;/div&gt;" style="whiteSpace=wrap;html=1;" vertex="1" parent="1">
          <mxGeometry x="440" y="320" width="160" height="40" as="geometry" />
        </mxCell>
        <mxCell id="3H3sNzVdtPN1H-u9H_TP-5" style="edgeStyle=orthogonalEdgeStyle;rounded=0;orthogonalLoop=1;jettySize=auto;html=1;endArrow=block;endFill=0;" edge="1" parent="1" source="3H3sNzVdtPN1H-u9H_TP-4" target="3H3sNzVdtPN1H-u9H_TP-1">
          <mxGeometry relative="1" as="geometry" />
        </mxCell>
        <mxCell id="3H3sNzVdtPN1H-u9H_TP-4" value="Contnet SceneState&lt;div&gt;&amp;lt;Object&amp;gt;&lt;/div&gt;" style="whiteSpace=wrap;html=1;" vertex="1" parent="1">
          <mxGeometry x="200" y="440" width="160" height="40" as="geometry" />
        </mxCell>
        <mxCell id="3H3sNzVdtPN1H-u9H_TP-7" style="edgeStyle=orthogonalEdgeStyle;rounded=0;orthogonalLoop=1;jettySize=auto;html=1;endArrow=block;endFill=0;" edge="1" parent="1" source="3H3sNzVdtPN1H-u9H_TP-6" target="3H3sNzVdtPN1H-u9H_TP-2">
          <mxGeometry relative="1" as="geometry" />
        </mxCell>
        <mxCell id="3H3sNzVdtPN1H-u9H_TP-6" value="Sub Contnet SceneState&lt;div&gt;&amp;lt;Object&amp;gt;&lt;/div&gt;" style="whiteSpace=wrap;html=1;" vertex="1" parent="1">
          <mxGeometry x="440" y="440" width="160" height="40" as="geometry" />
        </mxCell>
        <mxCell id="3H3sNzVdtPN1H-u9H_TP-8" value="Scene&lt;div&gt;&amp;lt;Unity Asset&amp;gt;&lt;/div&gt;" style="whiteSpace=wrap;html=1;" vertex="1" parent="1">
          <mxGeometry x="320" y="160" width="160" height="40" as="geometry" />
        </mxCell>
        <mxCell id="3H3sNzVdtPN1H-u9H_TP-11" value="해당하는 컨테츠 상태로 변경되었을 때 반드시 사용 할 씬이거나, 매우 높은 빈도로 사용하게 될 씬.&lt;div&gt;&lt;br&gt;&lt;/div&gt;&lt;div&gt;해당 상태에서 반드시 Load되어 있어야 하는 씬.&lt;/div&gt;" style="whiteSpace=wrap;html=1;verticalAlign=top;align=left;" vertex="1" parent="1">
          <mxGeometry y="320" width="160" height="160" as="geometry" />
        </mxCell>
        <mxCell id="3H3sNzVdtPN1H-u9H_TP-13" value="해당하는 컨테츠 상태에서 자주 사용될 것이라고 확신 할 수 없는 씬.&lt;div&gt;&lt;br&gt;&lt;/div&gt;&lt;div&gt;해당 상태에서 Unload 로 시작해야 하는 씬.&lt;/div&gt;" style="whiteSpace=wrap;html=1;verticalAlign=top;align=left;" vertex="1" parent="1">
          <mxGeometry x="640" y="320" width="160" height="160" as="geometry" />
        </mxCell>
      </root>
    </mxGraphModel>
  </diagram>
  <diagram id="6SXyH7uXjtP4Sm4xvBO8" name="UIViewController With MVVM">
    <mxGraphModel dx="1449" dy="1396" grid="1" gridSize="10" guides="1" tooltips="1" connect="1" arrows="1" fold="1" page="1" pageScale="1" pageWidth="827" pageHeight="1169" math="0" shadow="0">
      <root>
        <mxCell id="0" />
        <mxCell id="1" parent="0" />
        <mxCell id="KeMvwwj5QZUUI2HZfvFs-7" style="edgeStyle=orthogonalEdgeStyle;rounded=0;orthogonalLoop=1;jettySize=auto;html=1;endArrow=block;endFill=0;" edge="1" parent="1" source="KeMvwwj5QZUUI2HZfvFs-1" target="KeMvwwj5QZUUI2HZfvFs-3">
          <mxGeometry relative="1" as="geometry" />
        </mxCell>
        <mxCell id="KeMvwwj5QZUUI2HZfvFs-18" style="edgeStyle=orthogonalEdgeStyle;rounded=0;orthogonalLoop=1;jettySize=auto;html=1;startArrow=diamondThin;startFill=1;endSize=6;startSize=12;" edge="1" parent="1" source="KeMvwwj5QZUUI2HZfvFs-1" target="KeMvwwj5QZUUI2HZfvFs-13">
          <mxGeometry relative="1" as="geometry" />
        </mxCell>
        <mxCell id="KeMvwwj5QZUUI2HZfvFs-1" value="UIViewController&lt;span style=&quot;background-color: initial; font-size: 10px;&quot;&gt;&amp;lt;TViewState&amp;gt;&lt;/span&gt;&lt;div&gt;&lt;span style=&quot;background-color: initial; font-size: 10px;&quot;&gt;&amp;lt;Object&amp;gt;&lt;/span&gt;&lt;/div&gt;" style="rounded=0;whiteSpace=wrap;html=1;fontSize=10;" vertex="1" parent="1">
          <mxGeometry x="240" y="240" width="160" height="40" as="geometry" />
        </mxCell>
        <mxCell id="KeMvwwj5QZUUI2HZfvFs-16" value="" style="edgeStyle=orthogonalEdgeStyle;rounded=0;orthogonalLoop=1;jettySize=auto;html=1;endArrow=block;endFill=0;" edge="1" parent="1" source="KeMvwwj5QZUUI2HZfvFs-2" target="KeMvwwj5QZUUI2HZfvFs-15">
          <mxGeometry relative="1" as="geometry" />
        </mxCell>
        <mxCell id="KeMvwwj5QZUUI2HZfvFs-20" value="" style="edgeStyle=orthogonalEdgeStyle;rounded=0;orthogonalLoop=1;jettySize=auto;html=1;" edge="1" parent="1" source="KeMvwwj5QZUUI2HZfvFs-2" target="KeMvwwj5QZUUI2HZfvFs-19">
          <mxGeometry relative="1" as="geometry" />
        </mxCell>
        <mxCell id="KeMvwwj5QZUUI2HZfvFs-26" style="edgeStyle=orthogonalEdgeStyle;rounded=0;orthogonalLoop=1;jettySize=auto;html=1;startArrow=diamondThin;startFill=1;startSize=12;" edge="1" parent="1" source="KeMvwwj5QZUUI2HZfvFs-2" target="KeMvwwj5QZUUI2HZfvFs-25">
          <mxGeometry relative="1" as="geometry">
            <Array as="points">
              <mxPoint x="1040" y="250" />
            </Array>
          </mxGeometry>
        </mxCell>
        <mxCell id="KeMvwwj5QZUUI2HZfvFs-36" style="edgeStyle=orthogonalEdgeStyle;rounded=0;orthogonalLoop=1;jettySize=auto;html=1;startArrow=none;startFill=0;startSize=12;" edge="1" parent="1" source="KeMvwwj5QZUUI2HZfvFs-2" target="KeMvwwj5QZUUI2HZfvFs-28">
          <mxGeometry relative="1" as="geometry">
            <Array as="points">
              <mxPoint x="1280" y="260" />
            </Array>
          </mxGeometry>
        </mxCell>
        <mxCell id="KeMvwwj5QZUUI2HZfvFs-53" style="edgeStyle=orthogonalEdgeStyle;rounded=0;orthogonalLoop=1;jettySize=auto;html=1;" edge="1" parent="1" source="KeMvwwj5QZUUI2HZfvFs-2" target="KeMvwwj5QZUUI2HZfvFs-50">
          <mxGeometry relative="1" as="geometry">
            <Array as="points">
              <mxPoint x="1040" y="270" />
            </Array>
          </mxGeometry>
        </mxCell>
        <mxCell id="KeMvwwj5QZUUI2HZfvFs-2" value="UIViewModelComponent&lt;div&gt;&amp;lt;Component&amp;gt;&lt;/div&gt;" style="rounded=0;whiteSpace=wrap;html=1;" vertex="1" parent="1">
          <mxGeometry x="720" y="240" width="160" height="40" as="geometry" />
        </mxCell>
        <mxCell id="KeMvwwj5QZUUI2HZfvFs-6" style="edgeStyle=orthogonalEdgeStyle;rounded=0;orthogonalLoop=1;jettySize=auto;html=1;endArrow=classic;endFill=1;dashed=1;" edge="1" parent="1" source="KeMvwwj5QZUUI2HZfvFs-1" target="KeMvwwj5QZUUI2HZfvFs-4">
          <mxGeometry relative="1" as="geometry">
            <Array as="points">
              <mxPoint x="160" y="260" />
            </Array>
          </mxGeometry>
        </mxCell>
        <mxCell id="KeMvwwj5QZUUI2HZfvFs-3" value="IUIViewController&lt;span style=&quot;background-color: initial; font-size: 10px;&quot;&gt;&amp;lt;TViewState&amp;gt;&lt;/span&gt;&lt;div style=&quot;font-size: 10px;&quot;&gt;&lt;div style=&quot;font-size: 10px;&quot;&gt;&amp;lt;interface&amp;gt;&lt;/div&gt;&lt;/div&gt;" style="rounded=0;whiteSpace=wrap;html=1;fontSize=10;" vertex="1" parent="1">
          <mxGeometry x="240" y="120" width="160" height="40" as="geometry" />
        </mxCell>
        <mxCell id="KeMvwwj5QZUUI2HZfvFs-14" style="edgeStyle=orthogonalEdgeStyle;rounded=0;orthogonalLoop=1;jettySize=auto;html=1;endArrow=none;endFill=0;startArrow=classic;startFill=1;dashed=1;" edge="1" parent="1" source="KeMvwwj5QZUUI2HZfvFs-4" target="KeMvwwj5QZUUI2HZfvFs-13">
          <mxGeometry relative="1" as="geometry">
            <Array as="points">
              <mxPoint x="120" y="200" />
              <mxPoint x="560" y="200" />
            </Array>
          </mxGeometry>
        </mxCell>
        <mxCell id="KeMvwwj5QZUUI2HZfvFs-4" value="ViewState&lt;div&gt;&amp;lt;Enum&amp;gt;&lt;/div&gt;" style="rounded=0;whiteSpace=wrap;html=1;" vertex="1" parent="1">
          <mxGeometry x="40" y="300" width="160" height="40" as="geometry" />
        </mxCell>
        <mxCell id="KeMvwwj5QZUUI2HZfvFs-10" style="edgeStyle=orthogonalEdgeStyle;rounded=0;orthogonalLoop=1;jettySize=auto;html=1;endArrow=block;endFill=0;" edge="1" parent="1" source="KeMvwwj5QZUUI2HZfvFs-8" target="KeMvwwj5QZUUI2HZfvFs-1">
          <mxGeometry relative="1" as="geometry" />
        </mxCell>
        <mxCell id="KeMvwwj5QZUUI2HZfvFs-12" style="edgeStyle=orthogonalEdgeStyle;rounded=0;orthogonalLoop=1;jettySize=auto;html=1;endArrow=classic;endFill=1;dashed=1;" edge="1" parent="1" source="KeMvwwj5QZUUI2HZfvFs-8" target="KeMvwwj5QZUUI2HZfvFs-4">
          <mxGeometry relative="1" as="geometry">
            <Array as="points">
              <mxPoint x="160" y="380" />
            </Array>
          </mxGeometry>
        </mxCell>
        <mxCell id="KeMvwwj5QZUUI2HZfvFs-8" value="Content View Controller&lt;div&gt;&amp;lt;Object&amp;gt;&lt;br&gt;&lt;/div&gt;" style="rounded=0;whiteSpace=wrap;html=1;" vertex="1" parent="1">
          <mxGeometry x="240" y="360" width="160" height="40" as="geometry" />
        </mxCell>
        <mxCell id="KeMvwwj5QZUUI2HZfvFs-38" style="edgeStyle=orthogonalEdgeStyle;rounded=0;orthogonalLoop=1;jettySize=auto;html=1;" edge="1" parent="1" source="KeMvwwj5QZUUI2HZfvFs-13" target="KeMvwwj5QZUUI2HZfvFs-2">
          <mxGeometry relative="1" as="geometry" />
        </mxCell>
        <mxCell id="KeMvwwj5QZUUI2HZfvFs-13" value="ViewState&lt;div&gt;&amp;lt;Struct&amp;gt;&lt;/div&gt;" style="rounded=0;whiteSpace=wrap;html=1;" vertex="1" parent="1">
          <mxGeometry x="480" y="240" width="160" height="40" as="geometry" />
        </mxCell>
        <mxCell id="KeMvwwj5QZUUI2HZfvFs-15" value="IUIViewModel&lt;div&gt;&amp;lt;interface&amp;gt;&lt;/div&gt;" style="rounded=0;whiteSpace=wrap;html=1;" vertex="1" parent="1">
          <mxGeometry x="720" y="120" width="160" height="40" as="geometry" />
        </mxCell>
        <mxCell id="KeMvwwj5QZUUI2HZfvFs-19" value="Content ViewModel&lt;div&gt;&amp;lt;Component&amp;gt;&lt;/div&gt;" style="rounded=0;whiteSpace=wrap;html=1;" vertex="1" parent="1">
          <mxGeometry x="720" y="360" width="160" height="40" as="geometry" />
        </mxCell>
        <mxCell id="KeMvwwj5QZUUI2HZfvFs-22" value="UIViewItem&lt;div&gt;&amp;lt;interface&amp;gt;&lt;/div&gt;" style="rounded=0;whiteSpace=wrap;html=1;" vertex="1" parent="1">
          <mxGeometry x="1200" y="40" width="160" height="40" as="geometry" />
        </mxCell>
        <mxCell id="KeMvwwj5QZUUI2HZfvFs-31" style="edgeStyle=orthogonalEdgeStyle;rounded=0;orthogonalLoop=1;jettySize=auto;html=1;" edge="1" parent="1" source="KeMvwwj5QZUUI2HZfvFs-25" target="KeMvwwj5QZUUI2HZfvFs-22">
          <mxGeometry relative="1" as="geometry">
            <Array as="points">
              <mxPoint x="1040" y="60" />
            </Array>
          </mxGeometry>
        </mxCell>
        <mxCell id="KeMvwwj5QZUUI2HZfvFs-25" value="&lt;div&gt;ViewItemSetter&lt;/div&gt;&lt;div&gt;&amp;lt;Struct&amp;gt;&lt;/div&gt;" style="rounded=0;whiteSpace=wrap;html=1;" vertex="1" parent="1">
          <mxGeometry x="960" y="160" width="160" height="40" as="geometry" />
        </mxCell>
        <mxCell id="KeMvwwj5QZUUI2HZfvFs-30" style="edgeStyle=orthogonalEdgeStyle;rounded=0;orthogonalLoop=1;jettySize=auto;html=1;endArrow=block;endFill=0;" edge="1" parent="1" source="KeMvwwj5QZUUI2HZfvFs-28" target="KeMvwwj5QZUUI2HZfvFs-22">
          <mxGeometry relative="1" as="geometry" />
        </mxCell>
        <mxCell id="KeMvwwj5QZUUI2HZfvFs-34" style="edgeStyle=orthogonalEdgeStyle;rounded=0;orthogonalLoop=1;jettySize=auto;html=1;endArrow=block;endFill=0;" edge="1" parent="1" source="KeMvwwj5QZUUI2HZfvFs-28" target="KeMvwwj5QZUUI2HZfvFs-32">
          <mxGeometry relative="1" as="geometry">
            <Array as="points">
              <mxPoint x="1280" y="120" />
              <mxPoint x="1480" y="120" />
            </Array>
          </mxGeometry>
        </mxCell>
        <mxCell id="KeMvwwj5QZUUI2HZfvFs-35" style="edgeStyle=orthogonalEdgeStyle;rounded=0;orthogonalLoop=1;jettySize=auto;html=1;endArrow=block;endFill=0;" edge="1" parent="1" source="KeMvwwj5QZUUI2HZfvFs-28" target="KeMvwwj5QZUUI2HZfvFs-33">
          <mxGeometry relative="1" as="geometry">
            <Array as="points">
              <mxPoint x="1280" y="120" />
              <mxPoint x="1480" y="120" />
            </Array>
          </mxGeometry>
        </mxCell>
        <mxCell id="KeMvwwj5QZUUI2HZfvFs-28" value="Somthing" style="rounded=0;whiteSpace=wrap;html=1;" vertex="1" parent="1">
          <mxGeometry x="1200" y="160" width="160" height="40" as="geometry" />
        </mxCell>
        <mxCell id="KeMvwwj5QZUUI2HZfvFs-32" value="UIBinding&amp;lt;T&amp;gt;&lt;div&gt;&amp;lt;interface&amp;gt;&lt;/div&gt;" style="rounded=0;whiteSpace=wrap;html=1;" vertex="1" parent="1">
          <mxGeometry x="1400" y="40" width="160" height="40" as="geometry" />
        </mxCell>
        <mxCell id="KeMvwwj5QZUUI2HZfvFs-33" value="&lt;div&gt;UIEventHandle&lt;/div&gt;&lt;div&gt;&amp;lt;interface&amp;gt;&lt;/div&gt;" style="rounded=0;whiteSpace=wrap;html=1;" vertex="1" parent="1">
          <mxGeometry x="1400" y="160" width="160" height="40" as="geometry" />
        </mxCell>
        <mxCell id="KeMvwwj5QZUUI2HZfvFs-40" style="edgeStyle=orthogonalEdgeStyle;rounded=0;orthogonalLoop=1;jettySize=auto;html=1;endArrow=classic;endFill=1;dashed=1;" edge="1" parent="1" source="KeMvwwj5QZUUI2HZfvFs-3" target="KeMvwwj5QZUUI2HZfvFs-4">
          <mxGeometry relative="1" as="geometry">
            <mxPoint x="250" y="270" as="sourcePoint" />
            <mxPoint x="170" y="310" as="targetPoint" />
            <Array as="points">
              <mxPoint x="160" y="140" />
            </Array>
          </mxGeometry>
        </mxCell>
        <mxCell id="KeMvwwj5QZUUI2HZfvFs-48" style="edgeStyle=orthogonalEdgeStyle;rounded=0;orthogonalLoop=1;jettySize=auto;html=1;startArrow=classic;startFill=1;" edge="1" parent="1" source="KeMvwwj5QZUUI2HZfvFs-42" target="KeMvwwj5QZUUI2HZfvFs-47">
          <mxGeometry relative="1" as="geometry" />
        </mxCell>
        <mxCell id="KeMvwwj5QZUUI2HZfvFs-49" value="ViewState를 사용하여&lt;div&gt;View Show/Hide&lt;/div&gt;" style="edgeLabel;html=1;align=center;verticalAlign=middle;resizable=0;points=[];" vertex="1" connectable="0" parent="KeMvwwj5QZUUI2HZfvFs-48">
          <mxGeometry x="-0.0125" y="1" relative="1" as="geometry">
            <mxPoint y="21" as="offset" />
          </mxGeometry>
        </mxCell>
        <mxCell id="KeMvwwj5QZUUI2HZfvFs-42" value="&lt;span style=&quot;font-size: 10px;&quot;&gt;IUIViewController&lt;/span&gt;&lt;span style=&quot;font-size: 10px; background-color: initial;&quot;&gt;&amp;lt;TViewState&amp;gt;&lt;/span&gt;&lt;div&gt;&amp;lt;interface&amp;gt;&lt;span style=&quot;font-size: 10px; background-color: initial;&quot;&gt;&lt;br&gt;&lt;/span&gt;&lt;/div&gt;" style="rounded=0;whiteSpace=wrap;html=1;" vertex="1" parent="1">
          <mxGeometry x="560" y="760" width="160" height="40" as="geometry" />
        </mxCell>
        <mxCell id="KeMvwwj5QZUUI2HZfvFs-44" style="edgeStyle=orthogonalEdgeStyle;rounded=0;orthogonalLoop=1;jettySize=auto;html=1;startArrow=classic;startFill=1;" edge="1" parent="1" source="KeMvwwj5QZUUI2HZfvFs-43" target="KeMvwwj5QZUUI2HZfvFs-42">
          <mxGeometry relative="1" as="geometry" />
        </mxCell>
        <mxCell id="KeMvwwj5QZUUI2HZfvFs-46" value="OnChangeViewState 를&amp;nbsp;&lt;div&gt;사용하여 UI 전환&lt;/div&gt;" style="edgeLabel;html=1;align=center;verticalAlign=middle;resizable=0;points=[];" vertex="1" connectable="0" parent="KeMvwwj5QZUUI2HZfvFs-44">
          <mxGeometry x="0.025" relative="1" as="geometry">
            <mxPoint x="-2" y="20" as="offset" />
          </mxGeometry>
        </mxCell>
        <mxCell id="KeMvwwj5QZUUI2HZfvFs-79" value="적당히 관리" style="edgeStyle=orthogonalEdgeStyle;rounded=0;orthogonalLoop=1;jettySize=auto;html=1;" edge="1" parent="1" source="KeMvwwj5QZUUI2HZfvFs-43" target="KeMvwwj5QZUUI2HZfvFs-76">
          <mxGeometry relative="1" as="geometry">
            <Array as="points">
              <mxPoint x="320" y="900" />
            </Array>
          </mxGeometry>
        </mxCell>
        <mxCell id="KeMvwwj5QZUUI2HZfvFs-43" value="Content System&lt;div&gt;&amp;lt;Object&amp;gt;&lt;/div&gt;" style="rounded=0;whiteSpace=wrap;html=1;" vertex="1" parent="1">
          <mxGeometry x="240" y="760" width="160" height="40" as="geometry" />
        </mxCell>
        <mxCell id="KeMvwwj5QZUUI2HZfvFs-56" style="edgeStyle=orthogonalEdgeStyle;rounded=0;orthogonalLoop=1;jettySize=auto;html=1;" edge="1" parent="1" source="KeMvwwj5QZUUI2HZfvFs-47" target="KeMvwwj5QZUUI2HZfvFs-54">
          <mxGeometry relative="1" as="geometry" />
        </mxCell>
        <mxCell id="KeMvwwj5QZUUI2HZfvFs-59" value="View Show/Hide 전환" style="edgeLabel;html=1;align=center;verticalAlign=middle;resizable=0;points=[];" vertex="1" connectable="0" parent="KeMvwwj5QZUUI2HZfvFs-56">
          <mxGeometry x="0.2518" y="-5" relative="1" as="geometry">
            <mxPoint x="-5" y="5" as="offset" />
          </mxGeometry>
        </mxCell>
        <mxCell id="KeMvwwj5QZUUI2HZfvFs-57" style="edgeStyle=orthogonalEdgeStyle;rounded=0;orthogonalLoop=1;jettySize=auto;html=1;" edge="1" parent="1" source="KeMvwwj5QZUUI2HZfvFs-47" target="KeMvwwj5QZUUI2HZfvFs-55">
          <mxGeometry relative="1" as="geometry" />
        </mxCell>
        <mxCell id="KeMvwwj5QZUUI2HZfvFs-58" value="View 초기화 작업" style="edgeLabel;html=1;align=center;verticalAlign=middle;resizable=0;points=[];" vertex="1" connectable="0" parent="KeMvwwj5QZUUI2HZfvFs-57">
          <mxGeometry x="0.2282" y="-2" relative="1" as="geometry">
            <mxPoint x="-3" y="-12" as="offset" />
          </mxGeometry>
        </mxCell>
        <mxCell id="KeMvwwj5QZUUI2HZfvFs-47" value="IUIViewModel&lt;div&gt;&amp;lt;interface&amp;gt;&lt;br&gt;&lt;/div&gt;" style="rounded=0;whiteSpace=wrap;html=1;fillColor=#dae8fc;strokeColor=#6c8ebf;" vertex="1" parent="1">
          <mxGeometry x="880" y="760" width="160" height="40" as="geometry" />
        </mxCell>
        <mxCell id="KeMvwwj5QZUUI2HZfvFs-50" value="IUIShowAndHide&lt;div&gt;&amp;lt;interface&amp;gt;&lt;/div&gt;" style="rounded=0;whiteSpace=wrap;html=1;container=1;" vertex="1" parent="1">
          <mxGeometry x="960" y="320" width="160" height="40" as="geometry" />
        </mxCell>
        <mxCell id="KeMvwwj5QZUUI2HZfvFs-52" style="edgeStyle=orthogonalEdgeStyle;rounded=0;orthogonalLoop=1;jettySize=auto;html=1;endArrow=block;endFill=0;" edge="1" parent="1" source="KeMvwwj5QZUUI2HZfvFs-51" target="KeMvwwj5QZUUI2HZfvFs-50">
          <mxGeometry relative="1" as="geometry" />
        </mxCell>
        <mxCell id="KeMvwwj5QZUUI2HZfvFs-51" value="Somthing&lt;div&gt;&amp;lt;Component&amp;gt;&lt;/div&gt;" style="rounded=0;whiteSpace=wrap;html=1;" vertex="1" parent="1">
          <mxGeometry x="1200" y="320" width="160" height="40" as="geometry" />
        </mxCell>
        <mxCell id="KeMvwwj5QZUUI2HZfvFs-54" value="IUIShowAndHide&lt;div&gt;&amp;lt;interface&amp;gt;&lt;br&gt;&lt;/div&gt;" style="rounded=0;whiteSpace=wrap;html=1;" vertex="1" parent="1">
          <mxGeometry x="1200" y="800" width="160" height="40" as="geometry" />
        </mxCell>
        <mxCell id="KeMvwwj5QZUUI2HZfvFs-60" value="View 값 갱신" style="edgeStyle=orthogonalEdgeStyle;rounded=0;orthogonalLoop=1;jettySize=auto;html=1;startArrow=classic;startFill=1;endArrow=none;endFill=0;" edge="1" parent="1" source="KeMvwwj5QZUUI2HZfvFs-61" target="KeMvwwj5QZUUI2HZfvFs-47">
          <mxGeometry x="-0.0769" relative="1" as="geometry">
            <Array as="points">
              <mxPoint x="1000" y="660" />
            </Array>
            <mxPoint as="offset" />
          </mxGeometry>
        </mxCell>
        <mxCell id="KeMvwwj5QZUUI2HZfvFs-55" value="&lt;div&gt;ViewItemSetter&lt;/div&gt;" style="rounded=0;whiteSpace=wrap;html=1;" vertex="1" parent="1">
          <mxGeometry x="1200" y="720" width="160" height="40" as="geometry" />
        </mxCell>
        <mxCell id="KeMvwwj5QZUUI2HZfvFs-65" style="edgeStyle=orthogonalEdgeStyle;rounded=0;orthogonalLoop=1;jettySize=auto;html=1;" edge="1" parent="1" source="KeMvwwj5QZUUI2HZfvFs-55" target="KeMvwwj5QZUUI2HZfvFs-64">
          <mxGeometry relative="1" as="geometry">
            <mxPoint x="1430" y="730" as="targetPoint" />
            <Array as="points">
              <mxPoint x="1400" y="740" />
              <mxPoint x="1400" y="710" />
            </Array>
          </mxGeometry>
        </mxCell>
        <mxCell id="KeMvwwj5QZUUI2HZfvFs-66" value="View Update" style="edgeLabel;html=1;align=center;verticalAlign=middle;resizable=0;points=[];" vertex="1" connectable="0" parent="KeMvwwj5QZUUI2HZfvFs-65">
          <mxGeometry x="-0.0028" y="2" relative="1" as="geometry">
            <mxPoint x="42" y="5" as="offset" />
          </mxGeometry>
        </mxCell>
        <mxCell id="KeMvwwj5QZUUI2HZfvFs-72" style="edgeStyle=orthogonalEdgeStyle;rounded=0;orthogonalLoop=1;jettySize=auto;html=1;" edge="1" parent="1" source="KeMvwwj5QZUUI2HZfvFs-61" target="KeMvwwj5QZUUI2HZfvFs-64">
          <mxGeometry relative="1" as="geometry">
            <mxPoint x="1130" y="680" as="targetPoint" />
            <Array as="points">
              <mxPoint x="1160" y="670" />
              <mxPoint x="1160" y="700" />
            </Array>
          </mxGeometry>
        </mxCell>
        <mxCell id="KeMvwwj5QZUUI2HZfvFs-73" value="&lt;span style=&quot;color: rgba(0, 0, 0, 0); font-family: monospace; font-size: 0px; text-align: start; background-color: rgb(251, 251, 251);&quot;&gt;V3CmxGraphModel%3E%3Croot%3E%3CmxCell%20id%3D%220%22%2F%3E%3CmxCell%20id%3D%221%22%20parent%3D%220%22%2F%3E%3CmxCell%20id%3D%222%22%20value%3D%22View%20Update%22%20style%3D%22edgeLabel%3Bhtml%3D1%3Balign%3Dcenter%3BverticalAlign%3Dmiddle%3Bresizable%3D0%3Bpoints%3D%5B%5D%3B%22%20vertex%3D%221%22%20connectable%3D%220%22%20parent%3D%221%22%3E%3CmxGeometry%20x%3D%221320%22%20y%3D%22630.1428571428571%22%20as%3D%22geometry%22%2F%3E%3C%2FmxCell%3E%3C%2Froot%3E%3C%2FmxGraphModel%3E&lt;/span&gt;" style="edgeLabel;html=1;align=center;verticalAlign=middle;resizable=0;points=[];" vertex="1" connectable="0" parent="KeMvwwj5QZUUI2HZfvFs-72">
          <mxGeometry x="0.3619" relative="1" as="geometry">
            <mxPoint as="offset" />
          </mxGeometry>
        </mxCell>
        <mxCell id="KeMvwwj5QZUUI2HZfvFs-74" value="&lt;span style=&quot;color: rgba(0, 0, 0, 0); font-family: monospace; font-size: 0px; text-align: start; background-color: rgb(251, 251, 251);&quot;&gt;%3CmxGraphModel%3E%3Croot%3E%3CmxCell%20id%3D%220%22%2F%3E%3CmxCell%20id%3D%221%22%20parent%3D%220%22%2F%3E%3CmxCell%20id%3D%222%22%20value%3D%22View%20Update%22%20style%3D%22edgeLabel%3Bhtml%3D1%3Balign%3Dcenter%3BverticalAlign%3Dmiddle%3Bresizable%3D0%3Bpoints%3D%5B%5D%3B%22%20vertex%3D%221%22%20connectable%3D%220%22%20parent%3D%221%22%3E%3CmxGeometry%20x%3D%221320%22%20y%3D%22630.1428571428571%22%20as%3D%22geometry%22%2F%3E%3C%2FmxCell%3E%3C%2Froot%3E%3C%2FmxGraphModel&lt;/span&gt;" style="edgeLabel;html=1;align=center;verticalAlign=middle;resizable=0;points=[];" vertex="1" connectable="0" parent="KeMvwwj5QZUUI2HZfvFs-72">
          <mxGeometry x="0.3095" y="-1" relative="1" as="geometry">
            <mxPoint as="offset" />
          </mxGeometry>
        </mxCell>
        <mxCell id="KeMvwwj5QZUUI2HZfvFs-75" value="View Update" style="edgeLabel;html=1;align=center;verticalAlign=middle;resizable=0;points=[];" vertex="1" connectable="0" parent="KeMvwwj5QZUUI2HZfvFs-72">
          <mxGeometry x="0.2905" y="-2" relative="1" as="geometry">
            <mxPoint x="-38" y="-18" as="offset" />
          </mxGeometry>
        </mxCell>
        <mxCell id="KeMvwwj5QZUUI2HZfvFs-61" value="UIBinding&amp;lt;T&amp;gt;&lt;div&gt;&amp;lt;interface&amp;gt;&lt;/div&gt;" style="rounded=0;whiteSpace=wrap;html=1;" vertex="1" parent="1">
          <mxGeometry x="1200" y="640" width="160" height="40" as="geometry" />
        </mxCell>
        <mxCell id="KeMvwwj5QZUUI2HZfvFs-62" value="UIBinding&amp;lt;T&amp;gt;&lt;div&gt;&amp;lt;interface&amp;gt;&lt;/div&gt;" style="rounded=0;whiteSpace=wrap;html=1;" vertex="1" parent="1">
          <mxGeometry x="1200" y="600" width="160" height="40" as="geometry" />
        </mxCell>
        <mxCell id="KeMvwwj5QZUUI2HZfvFs-63" value="이벤트 전달" style="edgeStyle=orthogonalEdgeStyle;rounded=0;orthogonalLoop=1;jettySize=auto;html=1;startArrow=none;startFill=0;" edge="1" parent="1" source="KeMvwwj5QZUUI2HZfvFs-62" target="KeMvwwj5QZUUI2HZfvFs-47">
          <mxGeometry x="-0.2941" relative="1" as="geometry">
            <mxPoint x="1210" y="710" as="sourcePoint" />
            <mxPoint x="970" y="770" as="targetPoint" />
            <Array as="points">
              <mxPoint x="960" y="620" />
            </Array>
            <mxPoint as="offset" />
          </mxGeometry>
        </mxCell>
        <mxCell id="KeMvwwj5QZUUI2HZfvFs-64" value="UIViewItem&lt;div&gt;&amp;lt;interface&amp;gt;&lt;/div&gt;" style="rounded=0;whiteSpace=wrap;html=1;fillColor=#dae8fc;strokeColor=#6c8ebf;" vertex="1" parent="1">
          <mxGeometry x="1200" y="680" width="160" height="40" as="geometry" />
        </mxCell>
        <mxCell id="KeMvwwj5QZUUI2HZfvFs-69" style="edgeStyle=orthogonalEdgeStyle;rounded=0;orthogonalLoop=1;jettySize=auto;html=1;" edge="1" parent="1" source="KeMvwwj5QZUUI2HZfvFs-55" target="KeMvwwj5QZUUI2HZfvFs-61">
          <mxGeometry relative="1" as="geometry">
            <mxPoint x="1370" y="750" as="sourcePoint" />
            <mxPoint x="1370" y="720" as="targetPoint" />
            <Array as="points">
              <mxPoint x="1400" y="740" />
              <mxPoint x="1400" y="660" />
            </Array>
          </mxGeometry>
        </mxCell>
        <mxCell id="KeMvwwj5QZUUI2HZfvFs-67" value="이벤트 발생" style="edgeStyle=orthogonalEdgeStyle;rounded=0;orthogonalLoop=1;jettySize=auto;html=1;jumpStyle=gap;" edge="1" parent="1" source="KeMvwwj5QZUUI2HZfvFs-64" target="KeMvwwj5QZUUI2HZfvFs-62">
          <mxGeometry x="0.5789" y="-10" relative="1" as="geometry">
            <mxPoint x="1400" y="620" as="targetPoint" />
            <Array as="points">
              <mxPoint x="1420" y="690" />
              <mxPoint x="1420" y="620" />
            </Array>
            <mxPoint as="offset" />
          </mxGeometry>
        </mxCell>
        <mxCell id="KeMvwwj5QZUUI2HZfvFs-77" style="edgeStyle=orthogonalEdgeStyle;rounded=0;orthogonalLoop=1;jettySize=auto;html=1;startArrow=classic;startFill=1;" edge="1" parent="1" source="KeMvwwj5QZUUI2HZfvFs-76" target="KeMvwwj5QZUUI2HZfvFs-47">
          <mxGeometry relative="1" as="geometry" />
        </mxCell>
        <mxCell id="KeMvwwj5QZUUI2HZfvFs-78" value="Binding / EventHandle&lt;div&gt;사용하여 값 변경 및 이벤트 수신&lt;/div&gt;" style="edgeLabel;html=1;align=center;verticalAlign=middle;resizable=0;points=[];" vertex="1" connectable="0" parent="KeMvwwj5QZUUI2HZfvFs-77">
          <mxGeometry x="-0.0863" y="-2" relative="1" as="geometry">
            <mxPoint as="offset" />
          </mxGeometry>
        </mxCell>
        <mxCell id="KeMvwwj5QZUUI2HZfvFs-76" value="Content Model&lt;div&gt;&amp;lt;Component&amp;gt;&lt;/div&gt;" style="rounded=0;whiteSpace=wrap;html=1;fillColor=#dae8fc;strokeColor=#6c8ebf;" vertex="1" parent="1">
          <mxGeometry x="880" y="880" width="160" height="40" as="geometry" />
        </mxCell>
      </root>
    </mxGraphModel>
  </diagram>
</mxfile>
